<svg xmlns="http://www.w3.org/2000/svg" id="Calque_1" data-name="Calque 1" viewBox="0 0 24 24"><title>icons_</title><path d="M21.59,7.17a16.86,16.86,0,0,1-5.84,1.15c0-.1,0-.19,0-.28V1.17a.69.69,0,0,0-.92-.61A17,17,0,0,1,2.41.56a.68.68,0,0,0-.62.07.66.66,0,0,0-.29.54V8a9.05,9.05,0,0,0,7,8.8h.09a9.06,9.06,0,0,0,6.66,6.56l.15,0,.16,0a9,9,0,0,0,7-8.78V7.78A.68.68,0,0,0,21.59,7.17ZM2.83,8V2.11a18.3,18.3,0,0,0,11.61,0V8a7,7,0,0,1,0,.8s0,.05,0,.08A7.67,7.67,0,0,1,12.64,13l-.05.06a7,7,0,0,1-.71.73l-.11.1a7.9,7.9,0,0,1-.79.61l-.13.07c-.24.15-.48.29-.74.42l-.23.11a7.14,7.14,0,0,1-.81.31l-.44.13A7.73,7.73,0,0,1,2.83,8Zm18.34,6.59a7.72,7.72,0,0,1-5.79,7.46,7.75,7.75,0,0,1-5.55-5.56l.22-.1a7.22,7.22,0,0,0,.69-.31L11,16a8.3,8.3,0,0,0,.81-.49l.23-.16a8,8,0,0,0,.79-.65l0,0c.26-.24.5-.5.74-.77l.07-.09a9,9,0,0,0,1.95-4.16,18,18,0,0,0,5.55-.93Z"/><path d="M15.38,16.84A3.34,3.34,0,0,0,12.26,19a.66.66,0,0,0,.38.85.52.52,0,0,0,.24.05.67.67,0,0,0,.62-.42,2,2,0,0,1,1.88-1.27,2,2,0,0,1,1.89,1.27A.66.66,0,0,0,18.51,19,3.35,3.35,0,0,0,15.38,16.84Z"/><path d="M17.45,13.45h1.28a.66.66,0,1,0,0-1.31H17.45a.66.66,0,1,0,0,1.31Z"/><path d="M11.76,11.05a.65.65,0,0,0-.37-.85.67.67,0,0,0-.86.38,2,2,0,0,1-3.79,0,.67.67,0,0,0-.86-.38.66.66,0,0,0-.38.85,3.37,3.37,0,0,0,6.26,0Z"/><path d="M7.23,6.1a.66.66,0,0,0-.67-.66H5.28a.66.66,0,1,0,0,1.31H6.56A.66.66,0,0,0,7.23,6.1Z"/><path d="M10.7,6.75H12a.66.66,0,1,0,0-1.31H10.7a.66.66,0,1,0,0,1.31Z"/></svg>