<svg xmlns="http://www.w3.org/2000/svg" id="Calque_1" data-name="Calque 1" viewBox="0 0 24 24"><title>icons_</title><path d="M21.74,9.87,18.44,5.1a.66.66,0,0,0-.55-.29H14.68a.66.66,0,0,0-.65.52l-.31,1.59H10.28L10,5.33a.66.66,0,0,0-.65-.52H6.11a.66.66,0,0,0-.55.29L2.26,9.87A5.3,5.3,0,0,0,.5,13.8a5.48,5.48,0,0,0,5.55,5.39A5.48,5.48,0,0,0,11.6,13.8a5.36,5.36,0,0,0-.35-1.88l0-.09h1.54l0,.09a5.36,5.36,0,0,0-.35,1.88,5.55,5.55,0,0,0,11.1,0A5.3,5.3,0,0,0,21.74,9.87Zm-4.2-3.78,1.71,2.48a5.54,5.54,0,0,0-4.69,1l.67-3.46Zm-11.08,0H8.77l.67,3.46a5.54,5.54,0,0,0-4.69-1ZM6.05,17.91A4.18,4.18,0,0,1,1.82,13.8,4.18,4.18,0,0,1,6.05,9.69a4.18,4.18,0,0,1,4.23,4.11A4.18,4.18,0,0,1,6.05,17.91ZM11,10.55,10.53,8.2h2.94L13,10.55Zm7,7.36a4.18,4.18,0,0,1-4.23-4.11,4.23,4.23,0,0,1,8.46,0A4.18,4.18,0,0,1,18,17.91Z"/></svg>