<svg xmlns="http://www.w3.org/2000/svg" id="Calque_1" data-name="Calque 1" viewBox="0 0 24 24"><title>icons_</title><path d="M6.32,13.37a2.4,2.4,0,1,0,2.38,2.4A2.39,2.39,0,0,0,6.32,13.37Zm0,3.65a1.25,1.25,0,1,1,1.24-1.25A1.24,1.24,0,0,1,6.32,17Z"/><path d="M17.44,13.37a2.4,2.4,0,1,0,2.38,2.4A2.39,2.39,0,0,0,17.44,13.37Zm0,3.65a1.25,1.25,0,1,1,1.24-1.25A1.24,1.24,0,0,1,17.44,17Z"/><path d="M21.62,11.59a2.55,2.55,0,0,0-.5-.33l-.7-5.87a1.79,1.79,0,0,0-1.78-1.8h-3v-2A1.08,1.08,0,0,0,14.53.5H9.24A1.08,1.08,0,0,0,8.17,1.58v2h-3A1.77,1.77,0,0,0,3.35,5.32l-.7,5.94a2.55,2.55,0,0,0-.5.33,2.48,2.48,0,0,0-.81,1.71v5.8c0,.9.6,1.36,1.78,1.36H4v1.77A1.29,1.29,0,0,0,5.26,23.5h2a1.28,1.28,0,0,0,1.3-1.27V20.46h6.66v1.77a1.29,1.29,0,0,0,1.31,1.27h2a1.29,1.29,0,0,0,1.31-1.27V20.46h.82c1.19,0,1.78-.46,1.78-1.36V13.3A2.49,2.49,0,0,0,21.62,11.59Zm-7.16-10V3.5H9.29l0-1.85Zm-10,3.81a.65.65,0,0,1,.64-.65H18.64a.67.67,0,0,1,.65.72l.63,5.42c-.28-.07-.59-.12-.88-.18l-.54-.11c-.46-.09-.93-.16-1.42-.23l-.75-.1c-.48-.06-1-.1-1.47-.14l-.73-.06c-.74,0-1.48-.07-2.21-.07h-.07c-.74,0-1.5,0-2.25.08-.13,0-.25,0-.38,0-.63,0-1.25.1-1.87.17l-.47.07c-.57.07-1.12.16-1.66.26l-.45.09c-.31.06-.64.12-.93.19ZM7.42,22.23c0,.06-.07.12-.17.12h-2c-.1,0-.17-.06-.17-.12V20.46H7.42Zm11.26,0c0,.06-.07.12-.17.12h-2c-.1,0-.17-.06-.17-.12V20.46h2.33Zm2.59-3s-.08.09-.63.09H3.12c-.54,0-.62-.09-.64-.21V13.3a1.35,1.35,0,0,1,.45-.87,1.36,1.36,0,0,1,.45-.23,33.14,33.14,0,0,1,8.5-1.06,33.28,33.28,0,0,1,8.51,1.06,1.41,1.41,0,0,1,.44.23,1.33,1.33,0,0,1,.46.87Z"/></svg>