<svg xmlns="http://www.w3.org/2000/svg" xmlns:xlink="http://www.w3.org/1999/xlink" version="1.1" id="Calque_1" x="0px" y="0px" viewBox="0 0 512 512" style="enable-background:new 0 0 512 512;" xml:space="preserve">
<g id="surface1">
	<path d="M509.1,150.7L401.9,6.1c-2.8-3.8-7.3-6.1-12.1-6.1s-9.2,2.3-12.1,6.1L270.7,150.7c-3.4,4.6-3.9,10.6-1.3,15.7   c2.5,5.1,7.7,8.3,13.4,8.3h38.6v72.5c-7.6-3.9-16.1-6.1-25.2-6.1h-26.8c-30.4,0-55.2,24.7-55.2,55.2v31.3   c-7.6-3.9-16.1-6.1-25.2-6.1h-26.8c-30.4,0-55.2,24.8-55.2,55.2v31.3c-7.6-3.9-16.1-6.1-25.2-6.1H55.2C24.7,401.7,0,426.4,0,456.8   V497c0,8.3,6.7,15,15,15h428.4c8.3,0,15-6.7,15-15V174.6H497c5.7,0,10.8-3.2,13.4-8.3C512.9,161.3,512.4,155.2,509.1,150.7z    M30,456.8c0-13.9,11.3-25.2,25.2-25.2h26.8c13.9,0,25.2,11.3,25.2,25.2V482H30V456.8z M137.1,456.8v-80.3   c0-13.9,11.3-25.2,25.2-25.2h26.8c13.9,0,25.2,11.3,25.2,25.2V482h-77.1V456.8z M244.2,376.5v-80.3c0-13.9,11.3-25.2,25.2-25.2   h26.8c13.9,0,25.2,11.3,25.2,25.2V482h-77.1V376.5z M443.4,144.6c-8.3,0-15,6.7-15,15V482h-77.1V159.6c0-8.3-6.7-15-15-15h-23.8   l77.3-104.4l77.3,104.4H443.4z"/>
</g>
</svg>