<svg xmlns="http://www.w3.org/2000/svg" xmlns:xlink="http://www.w3.org/1999/xlink" version="1.1" id="Calque_1" x="0px" y="0px" viewBox="0 0 20 20" style="enable-background:new 0 0 20 20;" xml:space="preserve">
<g>
	<path d="M20,16.7c-0.2,0.3-0.3,0.3-0.7,0.1c-1-0.5-2.2-0.8-3.3-1c-1.3-0.2-2.6-0.2-3.9-0.1c-0.6,0.1-1.2,0.2-1.8,0.3   c-0.2,0-0.4,0-0.5,0c-2.7-0.6-5.3-0.6-7.9,0.3c-0.4,0.1-0.7,0.3-1.1,0.5c-0.3,0.2-0.6,0-0.6-0.4c0-4,0-8.1,0-12.1   C0.2,4.1,0.3,4,0.7,4C1,4,1.4,4,1.7,4c0.1,0,0.2,0,0.2-0.1c0-0.6,0-0.6,0.6-0.8c1.2-0.3,2.4-0.3,3.5-0.2C7.6,3,8.9,3.5,10,4.6   c0.1,0.1,0.1,0.1,0.2,0c1-1,2.3-1.5,3.7-1.7c1.4-0.2,2.7-0.1,4,0.2c0.3,0.1,0.4,0.2,0.4,0.5c0,0.4,0,0.4,0.4,0.4c0.3,0,0.5,0,0.8,0   c0.2,0,0.4,0.1,0.5,0.3C20,8.4,20,12.6,20,16.7z M10.5,15c1-0.6,2.1-0.9,3.2-1.1c1.2-0.2,2.4-0.1,3.6,0c0.1,0,0.2,0.1,0.2-0.1   c0-3.3,0-6.5,0-9.8c0-0.1,0-0.2-0.2-0.2c-1.3-0.3-2.5-0.3-3.8,0c-1.1,0.2-2.1,0.7-3,1.5c-0.1,0.1-0.1,0.2-0.1,0.3   c0,3.1,0,6.1,0,9.2C10.5,14.9,10.5,14.9,10.5,15z M9.7,15c0-3.2,0-6.3,0-9.4c0-0.1,0-0.2-0.1-0.2C9.1,4.9,8.6,4.5,8,4.2   C6.3,3.5,4.5,3.5,2.7,3.8C2.6,3.8,2.6,3.9,2.6,4c0,3.3,0,6.6,0,9.8c0,0.1,0,0.1,0.2,0.1c0.4,0,0.7-0.1,1.1-0.1   c1.2-0.1,2.4,0,3.5,0.3C8.2,14.3,9,14.6,9.7,15z M7.7,15C7.7,15,7.7,15,7.7,15C7.7,15,7.7,14.9,7.7,15c-0.8-0.3-1.5-0.4-2.2-0.4   c-1-0.1-2,0-3,0.1c-0.4,0.1-0.6-0.1-0.6-0.5c0-2.2,0-4.4,0-6.6c0-0.9,0-1.8,0-2.7c0-0.2,0-0.2-0.2-0.2c-0.2,0-0.3,0-0.5,0   C1,4.7,1,4.8,1,5c0,3.6,0,7.2,0,10.8c0,0.1,0,0.1,0,0.2C3.1,15.1,5.4,14.8,7.7,15z M12.4,15C12.5,15,12.5,15,12.4,15   c0.3,0,0.5,0,0.7,0c2-0.1,4,0.2,5.9,0.9c0.2,0.1,0.2,0.1,0.2-0.1c0-3.4,0-6.8,0-10.3c0-0.2,0-0.4,0-0.6c0-0.1,0-0.2-0.1-0.2   c-0.2,0-0.4,0-0.6,0s-0.2,0.1-0.2,0.2c0,3.1,0,6.2,0,9.2c0,0.1,0,0.1,0,0.2c0,0.2-0.2,0.4-0.4,0.4c-0.1,0-0.1,0-0.2,0   C15.9,14.5,14.1,14.5,12.4,15z"/>
</g>
</svg>