<svg xmlns="http://www.w3.org/2000/svg" id="Calque_1" data-name="Calque 1" viewBox="0 0 24 24"><title>icons_</title><path d="M22.81,7.44l-3.75-.1a4,4,0,0,0-2.9,1.15,4.18,4.18,0,0,0-1.26,2.9l0,.71a3.42,3.42,0,0,0-1.65,1.23,9.15,9.15,0,0,0-1.36-4.54.06.06,0,0,0,0,0V7.07A5.49,5.49,0,0,0,6.47,1.5H1.2a.66.66,0,0,0-.65.66V3.83A5.5,5.5,0,0,0,6,9.41h4.73c1.13,1.36,1.32,4,1.36,6.73-3.46.3-6.16,2.74-6.16,5.7a.67.67,0,0,0,.66.66H18.94a.67.67,0,0,0,.66-.66c0-2.95-2.68-5.38-6.1-5.69.24-1.61,1-2.67,2.05-2.89h0l3.71.1h.11a4,4,0,0,0,2.74-1.1,4.19,4.19,0,0,0,1.3-2.95l0-1.2A.65.65,0,0,0,22.81,7.44ZM1.86,3.83v-1H6.47a4.18,4.18,0,0,1,4.1,4.25v1H6A4.19,4.19,0,0,1,1.86,3.83ZM18.22,21.18H7.27c.4-2.12,2.7-3.75,5.48-3.75S17.82,19.06,18.22,21.18ZM22.11,9.27a2.91,2.91,0,0,1-.89,2A2.66,2.66,0,0,1,19.3,12L16.2,12l0-.53a2.85,2.85,0,0,1,.86-2A2.62,2.62,0,0,1,19,8.65l3.1.09Z"/></svg>