<svg xmlns="http://www.w3.org/2000/svg" id="Calque_1" data-name="Calque 1" viewBox="0 0 24 24"><title>ILLUSTRATOR_ICONS_MAIRIE</title><path d="M13,23.5a.7.7,0,0,1-.64-.43L9.12,14.92,5,17.48a.66.66,0,0,1-.74,0A.7.7,0,0,1,4,16.78L6.82,1.07A.68.68,0,0,1,8,.68l11.83,11a.72.72,0,0,1,.18.75.67.67,0,0,1-.62.44l-4.75.16,3,8.1a.65.65,0,0,1,0,.53.69.69,0,0,1-.39.36l-4,1.4A.57.57,0,0,1,13,23.5ZM9.45,13.21a.78.78,0,0,1,.22,0,.72.72,0,0,1,.42.4L13.38,22,16.09,21,13,12.66A.7.7,0,0,1,13,12a.69.69,0,0,1,.55-.3l4-.14-9.69-9L5.63,15.49l3.46-2.18A.78.78,0,0,1,9.45,13.21Z"/></svg>