<svg xmlns="http://www.w3.org/2000/svg" id="Calque_1" data-name="Calque 1" viewBox="0 0 24 24"><title>ILLUSTRATOR_ICONS_MAIRIE</title><path d="M12,.5A11.5,11.5,0,1,0,23.5,12,11.51,11.51,0,0,0,12,.5ZM1.85,12.65H5.54a18.66,18.66,0,0,0,.83,5.12H3.62A10.18,10.18,0,0,1,1.85,12.65ZM12.66,4.92V2a5.32,5.32,0,0,1,2.94,3Zm3.49,1.32a17.14,17.14,0,0,1,.93,5.09H12.66V6.24Zm-4.81-4.3v3h-3A5.21,5.21,0,0,1,11.34,1.94Zm0,4.3v5.09H6.86a16.84,16.84,0,0,1,.92-5.09Zm-5.8,5.09H1.85A10.19,10.19,0,0,1,3.61,6.24H6.37A18.89,18.89,0,0,0,5.54,11.33Zm1.32,1.32h4.48v5.12H7.78A17,17,0,0,1,6.86,12.65Zm4.47,6.44v3a5.22,5.22,0,0,1-3-3Zm1.32,3v-3H15.6A5.29,5.29,0,0,1,12.65,22.06Zm0-4.29V12.65h4.42a17.29,17.29,0,0,1-.93,5.12Zm5.75-5.12h3.75a10.18,10.18,0,0,1-1.77,5.12H17.56A18.65,18.65,0,0,0,18.4,12.65Zm0-1.32a18.5,18.5,0,0,0-.83-5.09h2.83a10.19,10.19,0,0,1,1.76,5.09Zm.91-6.41H17.06A9.93,9.93,0,0,0,15.62,2.5,10.13,10.13,0,0,1,19.3,4.92Zm-11-2.39A10.21,10.21,0,0,0,6.87,4.92H4.7A10.23,10.23,0,0,1,8.29,2.53ZM4.71,19.09H6.87a9.82,9.82,0,0,0,1.4,2.37A10.11,10.11,0,0,1,4.71,19.09ZM15.63,21.5a10.19,10.19,0,0,0,1.44-2.41h2.22A10.29,10.29,0,0,1,15.63,21.5Z"/></svg>