<svg xmlns="http://www.w3.org/2000/svg" id="Calque_1" data-name="Calque 1" viewBox="0 0 24 24"><title>icons_</title><path d="M19.59,22.06H14.17a.65.65,0,0,1-.66-.66v-6h-3v6a.65.65,0,0,1-.66.66H4.41a.66.66,0,0,1-.66-.66V13.22H1.16a.67.67,0,0,1-.62-.43.69.69,0,0,1,.17-.73l10.84-10a.67.67,0,0,1,.9,0l10.84,10a.69.69,0,0,1,.17.73.67.67,0,0,1-.62.43H20.25V21.4A.66.66,0,0,1,19.59,22.06Zm-4.76-1.32h4.1V12.55a.66.66,0,0,1,.66-.66h1.55L12,3.5,2.86,11.89H4.41a.66.66,0,0,1,.66.66v8.19h4.1v-6a.67.67,0,0,1,.66-.66h4.34a.67.67,0,0,1,.66.66Z"/></svg>