<svg xmlns="http://www.w3.org/2000/svg" id="Calque_1" data-name="Calque 1" viewBox="0 0 24 24"><title>icons_</title><path d="M17.75,16.85a4.38,4.38,0,0,0-3.33,1.58,3,3,0,0,1-4.82,0,4.43,4.43,0,0,0-3.35-1.58,4.39,4.39,0,0,0-3.34,1.58A3.11,3.11,0,0,1,.5,19.62V21A4.4,4.4,0,0,0,3.84,19.4a3.12,3.12,0,0,1,2.41-1.2,3.15,3.15,0,0,1,2.42,1.2,4.34,4.34,0,0,0,6.68,0,3,3,0,0,1,4.81,0A4.4,4.4,0,0,0,23.5,21V19.62a3.13,3.13,0,0,1-2.41-1.19A4.39,4.39,0,0,0,17.75,16.85Z"/><path d="M17.75,9.81a4.38,4.38,0,0,0-3.33,1.57,3,3,0,0,1-4.82,0,4.35,4.35,0,0,0-6.69,0A3.12,3.12,0,0,1,.5,12.58v1.34a4.4,4.4,0,0,0,3.34-1.57,3.11,3.11,0,0,1,2.41-1.19,3.15,3.15,0,0,1,2.42,1.19,4.34,4.34,0,0,0,6.68,0,3,3,0,0,1,4.81,0,4.4,4.4,0,0,0,3.34,1.57V12.58a3.13,3.13,0,0,1-2.41-1.2A4.38,4.38,0,0,0,17.75,9.81Z"/><path d="M21.09,4.34a4.31,4.31,0,0,0-6.67,0,3,3,0,0,1-4.82,0A4.43,4.43,0,0,0,6.25,2.76,4.39,4.39,0,0,0,2.91,4.34,3.14,3.14,0,0,1,.5,5.53V6.88A4.43,4.43,0,0,0,3.84,5.31a3.12,3.12,0,0,1,2.41-1.2,3.15,3.15,0,0,1,2.42,1.2,4.34,4.34,0,0,0,6.68,0,3,3,0,0,1,4.81,0A4.43,4.43,0,0,0,23.5,6.88V5.53A3.16,3.16,0,0,1,21.09,4.34Z"/></svg>