<svg xmlns="http://www.w3.org/2000/svg" id="Calque_1" data-name="Calque 1" viewBox="0 0 24 24"><title>icons_</title><path d="M22.19,16.47V15.35a10.07,10.07,0,0,0-4-8h0a10.15,10.15,0,0,0-3.73-1.78V4.43a.24.24,0,0,0-.24-.23H9.69a.24.24,0,0,0-.24.23V5.5A10.28,10.28,0,0,0,5.72,7.35h0a10.23,10.23,0,0,0-4,8V16.5A2.07,2.07,0,0,0,.5,18.43,2,2,0,0,0,2.4,20.5H21.6a2,2,0,0,0,1.9-2.07A2,2,0,0,0,22.19,16.47ZM10.8,5.57h2.31v6.34a1,1,0,0,1-1,.91h-.23a1,1,0,0,1-1-.91ZM5.72,9.16v5H7.06V8.05A8.57,8.57,0,0,1,9.45,6.93v5a2.35,2.35,0,0,0,2.39,2.28h.23a2.35,2.35,0,0,0,2.39-2.28V7a8.91,8.91,0,0,1,2.39,1.07v6.11H18.2v-5a8.63,8.63,0,0,1,2.64,6.2v1H18.23a6.48,6.48,0,0,1-1.11-.09l-3.67-.83a9.06,9.06,0,0,0-3.2,0l-3.34.8a6.78,6.78,0,0,1-1.2.11H3.07v-1A8.76,8.76,0,0,1,5.72,9.16Zm15.88,10H2.4a.65.65,0,0,1-.55-.7.66.66,0,0,1,.55-.71H5.71a8.19,8.19,0,0,0,1.47-.13l3.34-.8a7.93,7.93,0,0,1,2.66,0l3.68.84a7.83,7.83,0,0,0,1.37.11H21.6a.66.66,0,0,1,.55.71A.65.65,0,0,1,21.6,19.13Z"/></svg>