<svg xmlns="http://www.w3.org/2000/svg" id="Calque_1" data-name="Calque 1" viewBox="0 0 24 24"><title>icons_</title><path d="M22.1,5.15H15.74V3.05a1,1,0,0,0-1-1H9.15a1,1,0,0,0-1,1v2.1H1.81A1.37,1.37,0,0,0,.45,6.53V20.81a1.37,1.37,0,0,0,1.36,1.38H22.1a1.36,1.36,0,0,0,1.35-1.38V6.53A1.36,1.36,0,0,0,22.1,5.15ZM18.74,6.52V20.85l-13.58,0V6.49ZM9.5,3.4h4.91V5.15H9.5ZM1.78,20.81l0-14.33h2V20.82Zm20.35,0,0,.05h-2V6.52h2.06Z"/><path d="M9.17,15.6H10v.87a1.4,1.4,0,0,0,1.35,1.43h1.13a1.4,1.4,0,0,0,1.35-1.43V15.6h.87a1.39,1.39,0,0,0,1.41-1.37V13.1a1.39,1.39,0,0,0-1.41-1.36h-.87v-.87a1.4,1.4,0,0,0-1.35-1.43H11.39A1.4,1.4,0,0,0,10,10.87v.87H9.17A1.39,1.39,0,0,0,7.75,13.1v1.13A1.4,1.4,0,0,0,9.17,15.6Zm0-2.52H10.7a.66.66,0,0,0,.66-.67V10.87a.13.13,0,0,1,0-.09h1.12s0,0,0,.09v1.54a.67.67,0,0,0,.67.67h1.53a.22.22,0,0,1,.09,0v1.13s0,0-.09,0H13.21a.67.67,0,0,0-.67.67v1.54a.17.17,0,0,1,0,.09H11.4a.13.13,0,0,1,0-.1V14.93a.66.66,0,0,0-.66-.67H9.17c-.06,0-.09,0-.09,0V13.11S9.11,13.08,9.17,13.08Z"/></svg>