<svg xmlns="http://www.w3.org/2000/svg" xmlns:xlink="http://www.w3.org/1999/xlink" version="1.1" id="Calque_1" x="0px" y="0px" viewBox="0 0 20 20" style="enable-background:new 0 0 20 20;" xml:space="preserve">
<g>
	<path d="M3,16.8c-0.1,0-0.2,0-0.2,0c-0.7-0.2-1.4-0.4-2.1-0.9c-0.2-0.1-0.3-0.3-0.5-0.4L0,15.3v-1.7l0-0.1c0-0.1,0-0.2,0-0.3   c0-0.1,0-0.1,0-0.2c0-0.5,0.1-1,0.3-1.5c0.3-0.8,0.9-1.4,1.9-1.8c0.6-0.2,1.2-0.3,1.7-0.4c0.1,0,0.3-0.1,0.5,0.1   c0.3,0.3,0.7,0.4,1.3,0.5h0.1l0.1,0l0.7,0.2l-0.7,0.4c-0.1,0.1-0.2,0.1-0.2,0.1c-0.2,0.1-0.3,0.2-0.5,0.3c-0.9,0.6-1.4,1.4-1.7,2.6   c-0.2,1-0.2,1.9-0.3,2.7c0,0.1,0,0.3-0.2,0.5C3.2,16.8,3.1,16.8,3,16.8z M0.7,15L0.7,15c0.1,0.1,0.3,0.3,0.4,0.4   c0.5,0.4,1.1,0.6,1.7,0.7c0-0.8,0.1-1.7,0.3-2.7c0.3-1.3,0.9-2.3,1.9-3c-0.3-0.1-0.5-0.2-0.8-0.4c-0.5,0.1-1,0.2-1.5,0.4   c-0.8,0.3-1.3,0.7-1.5,1.4c-0.2,0.4-0.2,0.9-0.3,1.3c0,0.1,0,0.1,0,0.1c0,0.1,0,0.3-0.1,0.5L0.7,15L0.7,15z"/>
	<path d="M10.1,19L10.1,19c-1.3,0-2.9-0.1-4.4-0.5c-0.9-0.3-1.6-0.6-2.1-1c0,0-0.1-0.1-0.1-0.1l-0.1-0.1C3,17,2.9,16.7,2.9,16.4   c0-0.2,0-0.4,0-0.6c0-0.8,0-1.5,0.2-2.3c0.1-0.8,0.4-1.7,1.2-2.5c0.6-0.5,1.3-0.8,2-1c0.5-0.2,1.1-0.3,1.6-0.4   c0.1,0,0.3-0.1,0.6,0.1c0.5,0.4,1.1,0.6,1.9,0.6c0.6,0,1-0.2,1.4-0.6c0.1-0.1,0.3-0.2,0.5-0.1c0.9,0.2,1.9,0.4,2.9,0.9   c1,0.5,1.7,1.4,1.9,2.8c0.2,1,0.2,2,0.2,2.9l0,0.4c0,0.3-0.1,0.5-0.3,0.6c-0.3,0.4-0.8,0.7-1.4,1c-0.8,0.4-1.7,0.6-2.9,0.8   C11.7,19,10.8,19,10.1,19L10.1,19z M8,10.3c-0.5,0.1-1,0.2-1.5,0.4c-0.6,0.2-1.2,0.4-1.7,0.9c-0.5,0.5-0.8,1.1-1,2.1   c-0.1,0.7-0.1,1.5-0.2,2.2c0,0.2,0,0.4,0,0.6c0,0.2,0,0.3,0.2,0.4l0.1,0.1c0,0,0.1,0.1,0.1,0.1c0.5,0.4,1,0.7,1.9,0.9   c1.5,0.4,3,0.5,4.2,0.5c0.7,0,1.6,0,2.4-0.1c1.1-0.1,2-0.4,2.7-0.7c0.5-0.2,0.9-0.5,1.1-0.8c0,0,0.1-0.1,0.1-0.1l0-0.4   c0-0.9,0-1.9-0.2-2.8c-0.2-1.1-0.7-1.8-1.5-2.3c-0.8-0.4-1.7-0.6-2.6-0.8c-0.5,0.4-1.1,0.6-1.8,0.7C9.4,11.1,8.6,10.9,8,10.3z"/>
	<path d="M10.1,9.9C9,9.9,8,9.5,7.2,8.6C6.5,7.6,6.1,6.5,6.1,5.4l0,0c0-1,0.1-1.7,0.3-2.3c0.4-1.3,1.2-2.1,2.5-2.4   c0.8-0.2,1.6-0.1,2.4,0c1.2,0.3,2,1,2.3,2.2c0.5,1.6,0.4,3.1-0.1,4.4c-0.4,1-1,1.8-1.9,2.3C11.2,9.8,10.6,9.9,10.1,9.9z M6.8,5.4   c0,1,0.3,2,1,2.7c0.9,1.1,2.4,1.5,3.6,0.8c0.7-0.4,1.3-1.1,1.6-1.9c0.4-1.2,0.5-2.5,0-4c-0.3-0.9-0.9-1.4-1.8-1.6   c-0.7-0.2-1.4-0.2-2.1,0C8,1.6,7.3,2.2,7,3.2C6.9,3.8,6.8,4.4,6.8,5.4z"/>
	<path d="M5.9,9.2c-0.8,0-1.7-0.4-2.3-1.1c-0.7-0.9-1-1.9-1-3.2c0-0.4,0.1-0.9,0.2-1.3c0.3-1.3,1.2-2,2.5-2.1c0.7-0.1,1.2,0,1.8,0.1   l0.4,0.1L7.3,2.1C7,2.6,6.9,3.1,6.8,3.7c-0.2,1.7-0.1,3,0.5,4.1l0,0.1C7.4,8,7.4,8,7.4,8.1c0.1,0.1,0.1,0.3,0.1,0.4   c0,0.2-0.2,0.3-0.3,0.4C6.8,9.1,6.4,9.2,5.9,9.2z M5.9,2.1c-0.2,0-0.3,0-0.5,0c-1,0.1-1.6,0.6-1.9,1.6C3.4,4.1,3.4,4.5,3.4,4.9   C3.3,6,3.6,6.9,4.2,7.6c0.7,0.8,1.7,1.1,2.6,0.7c0,0,0-0.1,0-0.1l0-0.1C6,6.9,5.8,5.5,6.1,3.6c0.1-0.5,0.2-1,0.4-1.5   C6.3,2.1,6.1,2.1,5.9,2.1z"/>
	<path d="M14.3,9.2c-0.4,0-0.9-0.1-1.4-0.4c-0.1,0-0.2-0.1-0.3-0.3c0-0.1,0-0.3,0.1-0.4c0.6-0.9,0.8-2,0.8-3.3l0,0   C13.5,4,13.4,3,13,2.2c-0.1-0.2-0.1-0.3,0-0.4c0.1-0.2,0.3-0.2,0.4-0.2c0.9-0.2,1.7-0.1,2.5,0.1c0.7,0.3,1.2,0.8,1.5,1.4   c0.5,1.4,0.5,2.8,0,4c-0.4,1.1-1.2,1.8-2.2,2C14.8,9.1,14.5,9.2,14.3,9.2z M13.5,8.3c0.4,0.2,0.9,0.2,1.4,0.1   c0.8-0.2,1.4-0.8,1.7-1.6c0.4-1.1,0.4-2.2,0-3.5c-0.2-0.5-0.5-0.8-1-1c-0.5-0.2-1.1-0.2-1.8-0.2C14.1,3,14.2,4,14.2,4.8   C14.3,6.1,14,7.3,13.5,8.3z"/>
	<path d="M17,16.6c-0.1,0-0.2,0-0.3-0.1c-0.2-0.1-0.2-0.4-0.2-0.5c0-0.6,0-1.2-0.1-1.7c-0.1-0.7-0.2-1.6-0.7-2.4   c-0.4-0.6-0.9-1.1-1.7-1.5c0,0-0.1,0-0.1-0.1l-1.1-0.6l1.3-0.1c0.3,0,0.5,0,0.7-0.1c0.3-0.1,0.4-0.2,0.5-0.3   c0.3-0.3,0.5-0.2,0.7-0.2c0.5,0.1,1.1,0.2,1.7,0.4c1.1,0.4,1.2,1.2,1.3,2.1c0,0.2,0,0.3,0.1,0.5c0,0.3,0.2,0.7,0.4,1.1   c0.2,0.5,0.5,1,0.5,1.5c0,0.3-0.2,0.5-0.3,0.6c-0.3,0.3-0.7,0.6-1.2,0.8c-0.4,0.2-0.9,0.3-1.3,0.4C17.1,16.6,17.1,16.6,17,16.6z    M15.1,10.3c0.6,0.4,1,0.9,1.3,1.4c0.5,0.9,0.6,1.8,0.7,2.6c0.1,0.5,0.1,1,0.1,1.6c0.3-0.1,0.7-0.2,1-0.3c0.4-0.2,0.7-0.4,1-0.6   c0-0.1,0.1-0.1,0.1-0.1c0-0.4-0.2-0.8-0.4-1.2c-0.2-0.4-0.4-0.8-0.5-1.2c0-0.2,0-0.4-0.1-0.5c-0.1-0.9-0.2-1.3-0.9-1.5   c-0.5-0.2-1.1-0.3-1.6-0.4c-0.1,0-0.1,0-0.1,0C15.6,10.1,15.3,10.2,15.1,10.3z"/>
</g>
</svg>