<svg xmlns="http://www.w3.org/2000/svg" id="Calque_1" data-name="Calque 1" viewBox="0 0 24 24"><title>icons_</title><path d="M23.5,12a11.49,11.49,0,0,0-23-.57h0v1.16h0A11.47,11.47,0,0,0,11.42,23.47v0h1.16v0A11.49,11.49,0,0,0,23.5,12Zm-1.15,0a10.89,10.89,0,0,1-6.88-2.93L19.56,5A10.31,10.31,0,0,1,22.35,12ZM18.74,4.16,14.67,8.22A10.88,10.88,0,0,1,12,1.65,10.36,10.36,0,0,1,18.74,4.16ZM10.88,1.72a12,12,0,0,0,3,7.32l-2.15,2.15L5,4.44A10.26,10.26,0,0,1,10.88,1.72ZM4.16,5.27,10.89,12,8.46,14.44a12.08,12.08,0,0,0-6.78-3A10.27,10.27,0,0,1,4.16,5.27ZM1.68,12.64a10.87,10.87,0,0,1,6,2.61L4.16,18.73A10.29,10.29,0,0,1,1.68,12.64ZM5,19.56l3.51-3.51a10.93,10.93,0,0,1,2.89,6.27A10.31,10.31,0,0,1,5,19.56Zm7.56,2.76a12,12,0,0,0-3.24-7.08l2.43-2.43,7,7A10.27,10.27,0,0,1,12.52,22.32Zm0-10.32,2.14-2.14a12,12,0,0,0,7.63,3.26A10.28,10.28,0,0,1,19.56,19Z"/></svg>